<svg width="22" height="20" viewBox="0 0 22 20" fill="none" xmlns="http://www.w3.org/2000/svg">
<path d="M1.75 10C1.74977 8.55176 2.13081 7.12893 2.8548 5.87459C3.5788 4.62026 4.62024 3.57861 5.87444 2.85437C7.12864 2.13013 8.55139 1.74881 9.99967 1.74876C11.448 1.7487 12.8707 2.1299 14.125 2.85405C14.2972 2.95193 14.5011 2.97775 14.6922 2.92586C14.8833 2.87397 15.0462 2.74858 15.1452 2.57707C15.2442 2.40555 15.2714 2.20183 15.2208 2.01036C15.1702 1.81888 15.0459 1.65521 14.875 1.55505C13.0163 0.481918 10.8554 0.0520769 8.72752 0.332185C6.59962 0.612294 4.62361 1.5867 3.10593 3.10428C1.58825 4.62186 0.613717 6.59782 0.333472 8.7257C0.0532275 10.8536 0.48293 13.0145 1.55594 14.8733C2.62895 16.732 4.2853 18.1848 6.26811 19.0063C8.25093 19.8278 10.4494 19.9721 12.5226 19.4168C14.5958 18.8615 16.4278 17.6377 17.7345 15.9351C19.0413 14.2325 19.7497 12.1463 19.75 10C19.75 9.80113 19.671 9.61037 19.5303 9.46972C19.3897 9.32906 19.1989 9.25005 19 9.25005C18.8011 9.25005 18.6103 9.32906 18.4697 9.46972C18.329 9.61037 18.25 9.80113 18.25 10C18.25 12.1881 17.3808 14.2865 15.8336 15.8337C14.2865 17.3809 12.188 18.25 10 18.25C7.81196 18.25 5.71354 17.3809 4.16637 15.8337C2.61919 14.2865 1.75 12.1881 1.75 10Z" fill="white"/>
<path d="M21.031 3.03097C21.1007 2.96124 21.156 2.87846 21.1938 2.78735C21.2315 2.69624 21.2509 2.59859 21.2509 2.49997C21.2509 2.40136 21.2315 2.3037 21.1938 2.2126C21.156 2.12149 21.1007 2.0387 21.031 1.96897C20.9613 1.89924 20.8785 1.84392 20.7874 1.80619C20.6963 1.76845 20.5986 1.74902 20.5 1.74902C20.4014 1.74902 20.3037 1.76845 20.2126 1.80619C20.1215 1.84392 20.0387 1.89924 19.969 1.96897L10 11.9395L6.031 7.96897C5.96127 7.89924 5.87848 7.84392 5.78737 7.80619C5.69626 7.76845 5.59861 7.74902 5.5 7.74902C5.40138 7.74902 5.30373 7.76845 5.21262 7.80619C5.12151 7.84392 5.03873 7.89924 4.969 7.96897C4.89927 8.0387 4.84395 8.12149 4.80621 8.2126C4.76847 8.3037 4.74905 8.40136 4.74905 8.49997C4.74905 8.59859 4.76847 8.69624 4.80621 8.78735C4.84395 8.87846 4.89927 8.96124 4.969 9.03097L9.469 13.531C9.53867 13.6008 9.62143 13.6562 9.71255 13.694C9.80367 13.7318 9.90135 13.7513 10 13.7513C10.0986 13.7513 10.1963 13.7318 10.2874 13.694C10.3786 13.6562 10.4613 13.6008 10.531 13.531L21.031 3.03097Z" fill="white"/>
</svg>
